<?xml version="1.0" encoding="UTF-8"?>
<svg id="Layer_2" data-name="Layer 2" xmlns="http://www.w3.org/2000/svg" viewBox="0 0 800 992.03">
  <defs>
    <style>
      .cls-1 {
        fill: #3b342d;
      }

      .cls-2 {
        fill: #8e8279;
      }

      .cls-3 {
        fill: #9ba581;
      }

      .cls-4 {
        fill: #737373;
      }

      .cls-5 {
        fill: #453f38;
      }

      .cls-6 {
        fill: #1e1b18;
      }
    </style>
  </defs>
  <g id="Layer_1-2" data-name="Layer 1">
    <circle class="cls-2" cx="400" cy="592.04" r="400"/>
    <g>
      <path class="cls-1" d="M610.27,731.96c33.26,145.95-81.57,165.3-203.23,179.2-129.32,14.79-269.72-51.72-240.16-179.2,28.74-123.97,135.15-322.92,221.7-322.92s182.03,148.83,221.69,322.92Z"/>
      <path class="cls-1" d="M437.83,409.04c0,12.2,32.74,97.9,13.09,97.9h-125.27c-19.66,0,26.24-85.7,26.24-97.9l-32.62-111.33c0-12.19,15.21-21.77,59.26-27.59,69.67-9.2,97.82,8.04,97.82,20.24l-38.53,118.68Z"/>
    </g>
    <path class="cls-5" d="M378.54,270.12c-44.05,5.82-59.26,15.4-59.26,27.59l32.62,111.33c0,2.2-1.52,6.83-3.86,12.91-76.58,45.95-156.77,204.9-181.15,310.01-29.56,127.48,110.84,193.99,240.16,179.2,121.66-13.9-28.51-641.04-28.51-641.04Z"/>
    <g>
      <path class="cls-4" d="M466.04,422.95c0,6.4-4.78,11.58-10.67,11.58,0,0-60.86,6.9-79.75,5.72-18.89-1.18-29.82-5.72-29.82-5.72-5.89,0-10.66-5.19-10.66-11.58h0c0-6.4,4.78-11.58,10.66-11.58,0,0,.13,1.33,31.18,5.72s78.4-5.72,78.4-5.72c5.9,0,10.68,5.18,10.68,11.58h0Z"/>
      <path class="cls-4" d="M470.88,466.13c-2.49-20.39-16.62-47.58-16.62-47.58-1.14-6.29-7.16-10.47-13.45-9.34-6.29,1.13-10.48,7.16-9.35,13.45,0,0,14.69,12.19,16.35,46.14,1.65,33.96-5.49,34.33-5.49,34.33,1.15,6.3,13.03,10.48,19.32,9.34,6.3-1.14,13.42-4.23,12.28-10.52,0,0-.57-15.42-3.04-35.82Z"/>
    </g>
    <path class="cls-1" d="M318.5,866.51c-26.55,17.12-81.85-19.93-98.96-46.49-17.12-26.57-26.43-83.94.15-101.05,26.57-17.11,125.39,130.42,98.82,147.53Z"/>
    <path class="cls-6" d="M459.69,287.06c.82,7.55-26.38,16.67-60.72,20.38-34.35,3.71-62.85.59-63.67-6.96-.81-7.54,28.53-23.62,62.88-27.33,34.33-3.71,60.68,6.36,61.51,13.91Z"/>
    <path class="cls-3" d="M209.87,539.28s-100.12,1.97-102.87-77.69c-2.75-79.65,75.42-86.38,38.49-135.93-36.93-49.54-72.66-69.86-47.97-136.2,24.69-66.34,40.1-110.73,40.1-110.73,0,0-27.18,103.1-6.73,149.01,20.45,45.91,84.99,38.69,89.22,117.8,4.23,79.1-46.77,50.47-58.16,110.18-11.87,62.2,47.91,83.57,47.91,83.57Z"/>
    <path class="cls-3" d="M549.15,464.4s100.02-4.85,97.35-84.51c-2.67-79.66-81.12-81.05-47.65-132.99,33.47-51.94,67.74-74.64,38.59-139.15C608.29,43.24,589.89,0,589.89,0c0,0,34.13,101.01,16.86,148.2-17.28,47.19-82.16,44.39-81,123.59s50.09,47.17,65.52,105.97c16.07,61.25-42.11,86.63-42.11,86.63Z"/>
    <path class="cls-3" d="M216.98,217.09s-46.43-4.63-43.3-41.64c3.13-37.01,39.67-35.8,25.33-60.77-14.35-24.97-29.76-36.34-14.66-65.67C199.43,19.69,209.02,0,209.02,0c0,0-18.28,46.2-11.35,68.57,6.92,22.37,37.19,22.6,34.77,59.44s-24.43,20.77-33,47.77,17.55,41.32,17.55,41.32Z"/>
    <path class="cls-3" d="M677.67,563.95s44.41-2.15,43.23-37.53c-1.19-35.37-36.02-35.99-21.16-59.06s30.08-33.15,17.14-61.79c-12.94-28.64-21.11-47.85-21.11-47.85,0,0,15.16,44.85,7.48,65.81-7.67,20.96-36.49,19.71-35.97,54.88.52,35.17,22.24,20.95,29.1,47.06,7.14,27.2-18.7,38.47-18.7,38.47Z"/>
    <g>
      <path class="cls-3" d="M258.25,633.81c10.82,0,19.02,2.23,24.6,6.68v17.87h-.98c-4.59-2.98-11.2-5.22-19.83-6.73-4.42.89-6.63,1.88-6.63,2.98,0,2.09,5.67,4.31,17,6.68,11.33,5.96,17,13.88,17,23.78l-.92,2.26h.92c0,6.99-6.3,13.18-18.9,18.59v.72h1.9l-.92.72.92.77v1.49h-21.73l-.98-.77-.92.77-4.73-.77h-2.82v-1.49h2.82l7.55-1.44v-1.49c-10.07-2.36-15.1-5.08-15.1-8.17l.92-.77v-4.47l-.92-2.98.92-2.98-.92-.72.92-.72v-.77l-.92-2.98h.92c9.31,4.45,16.25,6.68,20.8,6.68h3.8c2.26,0,4.14-.74,5.65-2.21,0-2.19-6.93-5.17-20.8-8.94-8.18-5-12.28-11.44-12.28-19.31v-6.68c4.9-10.41,12.77-15.61,23.63-15.61ZM266.78,705.15l1.9,1.49,1.85-2.21-3.75.72Z"/>
      <path class="cls-3" d="M302.78,635.14l3.6.72v-1.39h2.82l.72.67.72-.67h2.88v1.39l4.98-1.39c3.32.31,4.98.77,4.98,1.39l.72-.72h.72l2.11,1.44v-1.44h.72l2.88.72.67-.72h.72l.72.72h.72l2.88-.72v.72l.67-.72,3.6.72h6.42l.72,3.6-.72,2.11.72,2.16h-.72l.72.72v1.44l-.72.67.72.72v.72l-.72,5.7.72.72-4.31.72-.72-.72v.72l-4.26-1.44-3.54.72-3.6-.72-2.11,3.6.72.67v.72h-.72l.72.72v.72l-.72.72.72,3.54-.72,2.16.72,2.88v.67l-.72.72.72.72v.72l-.72.72v.72l.72.72v.72l-.72.67v.72l.72,2.88-.72.72v.72l.72.67v.72l-.72,4.31.72.67v.72l-1.44,3.59,1.44,2.11-1.44,4.31,1.44,1.39h-1.44v.72l1.44,4.26-6.42,2.16v-1.44l-4.26,1.44v-2.82h-1.44v1.39l-1.44,1.44-2.82-.72.67-.72v-1.39l-.67-.72v-.72l-.72.72h-1.44l-.72-2.88,1.44-1.44h-1.44v-.67h2.88v-1.44h-1.44l-.72.72h-.72v-.72l.72-.72-.72-.72v-1.44l1.44-2.11v-.72h-1.44l.72-.72v-.72l-.72-.72.72-2.11-.72-2.16h.72l-.72-.72v-.72l.72-2.11-.72-.72,1.44-1.44-.72-.72v-.72l.72-.72-.72-.72,1.44-1.39v-.72l-2.16-.72.72-.72v-.72l-.72-.72v-.72l.72-2.11-.72-2.16h.72l.72-.72.72-2.11h-2.16v-.72l.72-.72v-.72l-.72-.72h1.44l-.72-.72v-.72l.72-.72-.72-.67v-1.44c1.44,0,2.16-.48,2.16-1.44v-1.44h-1.44v2.16h-1.44c0-1.44-1.9-2.16-5.7-2.16v.72l-2.16-.72v-1.39h1.44v-.72l-1.44-1.44-1.39,2.82.72.72-2.88.72-.72-.72h-.72l-3.54.72-.72-2.11h.72l-.72-.72v-.72l.72-4.26-.72-.72v-.72l.72-2.16h-.72c0-1.88,1.18-2.83,3.54-2.83,0-.96-.94-1.44-2.83-1.44v-1.44c1.44,0,2.16-.7,2.16-2.11h6.37v.67ZM302.78,635.14c-1.88,0-2.83.72-2.83,2.16,1.88-.24,2.83-.96,2.83-2.16ZM303.5,636.58v.72l1.44,1.44v-2.16h-1.44ZM303.5,643.72l.72.72v.72l-.72,2.83v.72h.72l2.88-4.26v-.72h-3.6ZM307.1,638.74v2.11h1.39v-2.11h-1.39ZM308.48,644.44l.72.72h1.44l-.72-2.16-1.44,1.44ZM309.2,646.55l1.44,1.44.72-.72v-1.39l-2.16.67ZM309.92,637.3v2.88h2.16l-.72-.72v-.72l.72-.72-.72-.72h-1.44ZM310.64,702.89h.72l2.16,3.54h-.72l-2.16-.72v-2.83ZM312.08,645.16l.72,2.11,1.39-1.39-2.11-.72ZM316.34,636.58v.72l1.44,1.44v-2.16h-1.44ZM317.06,652.97v1.44h.72l1.44-1.44h-2.16ZM319.88,697.19v1.39l2.88,1.44v-.72l-.72-2.11h-2.16ZM322.04,680.09v.72l.72.67h-1.44v1.44h1.44l1.44-1.44-2.16-1.39ZM324.92,701.45v.72h2.82v-1.44l-2.82.72ZM345.51,659.03l.51,2.57h1.03l-.51-2.57h-1.03ZM363.85,640.18l-.51.51v.51l1.54-.51v-.51h-1.03Z"/>
      <path class="cls-3" d="M370.37,632.32l.72.72h17.1l.72,2.21h-.72l8.17,27.48v3.75l8.17,1.44,2.21-.72v.72l.77,2.26-2.26.72c0,3.22,3.22,12.14,9.66,26.76l2.98,9.6-.77.77h-3.7l-.72-.77h-.77l-.72.77v-.77l-.77.77h-9.66c-3.22,0-5.94-3.22-8.17-9.66l-2.93-.72h-17.82l-3.75,8.89-.72.72v.77l-.77-.77-.72.77h-16.33v-4.47c0-2.09,1.99-7.53,5.96-16.33h-.77c2.98-5.92,4.47-10.87,4.47-14.84l-2.98-.72-3.7.72-2.98-.72v-3.75h1.49l.72.77h.77l12.63-30.46-.77-.72c.86,0,1.85-1.49,2.98-4.47l2.98-.72ZM374.07,662.01l-1.49,5.19h.77l3.7-.72-.77-4.47h-2.21ZM377.05,679.06l.72.77h2.98l2.98-.77,3.7,1.49c-1.23-5.92-2.47-8.89-3.7-8.89h-2.98c-.75,0-1.99,2.47-3.7,7.4Z"/>
      <path class="cls-3" d="M418.35,705.97h-1.23v-32.36h.1l1.13,32.36ZM461.95,641.62h-.1v-.1l.51-.67h-.56v-.21l.46-.1v-.1l-.21-.21-.21.21v-.21l.1-.67-.1-.1h-.05l.36-.56-.1-.31h.21l-.21-.26v-.1h.21v-.1l-.1-.1.1-.1v-.1l-.1-.36.1-.41v-.1l-.1-.1.1-.1v-.46l-.1-.1v-.1h.1l-.1-.1v-.05l.1-.41-.1-.1v-.1l.1-.1-.1-.46v-.87l10.84.1v.1c0,1.16.07,1.75.21,1.75l-.1.1.1.46v.46c.17,0,.26.07.26.21l-.1.1.31.1h.1v-.1h-.21v-.1l.41-.31c0,.55-.17.82-.51.82l.1.05v.1l-.1.1h.21l-.21.57h.1c.14,0,.21-.15.21-.46h.1v.41h.1l.15-.21-.15-.41.1-.26.05.1h.1v-.1l-.1-.1h-.05l-.1.1v-.21h.26l-.1-.1v-.1l.1-.1h.21l-.1.51.1.26-.21.21.21.21.1-.1h.31v.21l-.1.1v.05h.1c.17-.14.26-.33.26-.57h.1c.03.27.14.41.31.41l-.21-.62h-.1v-.15h.1c.14,0,.21.09.21.26h.1l.26-.15.1.26-.1.1v.1l.1.1v.1c-.31.03-.46.12-.46.26l.26.1c.03-.24.14-.36.31-.36h.21c0,.17.07.26.21.26v-.15h.15l.1.46h.1v-.41h.1c0,.34.14.55.41.62.24-.03.36-.14.36-.31h.31v.21h-.21v.77h-.1c0-.31-.07-.46-.21-.46l-.15.15.15.21v.21h-.15v-.21l-.21-.21h-.31v.21h-.1c0,.27.07.41.21.41l.1-.1h.1v.1l.46-.21c0,.14.19.21.56.21l.21.15v.41h.1l.21-.21-.21-.31.31-.05v.15h.1l.26-.1v.1c0,.41.1.62.31.62,0-.27.07-.41.21-.41v.1l-.41.67.31-.21.1.1h.15l.21-.77h.1v.21c.21,0,.31.07.31.21l-.21.26v.1h.1v-.15h.1l.1.05h.05v-.15l-.05-.51.36.51-.1.26.1-.1h.21l-.1.31-.46-.21-.1.1v.21l.15.21v-.31c.27.17.41.46.41.87h.1v-.46l-.1-.1h-.1c.1-.27.21-.41.31-.41h.1v.21h-.21v.1c.1.24.21.36.31.36l.15-.15.21.15v.21l-.21.21-.1-.31h-.15v.31l.1.31h-.31v.05l.31.1-.21.62h.1c.17,0,.26-.26.26-.77.14,0,.21.09.21.26l-.1.1v.1l.1.31-.1.05.1.1h-.1l-.36-.1-.1.1v.21h.1l.26-.21.31.77-.1.1h.21l-.1.1v.21l.1.77-.1.67.1.31c-.17,0-.27.12-.31.36v.1h.1c0-.17.07-.26.21-.26l-.1.82c.03.55.1.82.21.82l-.21.26.1.1v.1l-.1.46.1-.1h.1l-.1.51v.1l.1.1-.1.26.1.1v.1l-.1.1.1.46v.1l-.1.51h.1l-.21.77.1.26-.1.1v.1l.21.41c-.14.27-.21.79-.21,1.54v.46c-.31,0-.46.07-.46.21h.05l.31-.1.1.1v.31l-.1.36.21.77-.21.57h-.1l.21.31v.31h-.21l.1-.1-.1-.31h-.1v.21h-.1l.1.31v.26h-.1c0-.24-.05-.36-.15-.36l.1-.51-.21-.15h-.1v.15l.1.1v.1l-.1.31h.1l.46.77.1-.1.1.36c-.03.27-.14.41-.31.41v.31h.31v.15l-.1.1.1.31v.36h-.1v-.36h-.1v.21h-.1v-.31h-.15v.1l.36.77-.1-.1h-.1v.21l.21.26-.1.87h.21v.21l-.1.1.1.1v.31l-.1.05.1.1v.1l-.1.1v.1l.21,1.18-.1.36.1.1h-.1l.1.1-.21.77.21.31-.1.05v.41l.1.1-.1.1v.1l.1.1-.1.05v.21l.1.98c-.03.45-.1.67-.21.67l.1.1v.41l-.1.05v.1h.21v.1c0,.45-.07.67-.21.67l.1.1v.1l-.1.77.1.1v.1l-.1.1v.1l.1.26h-.1l-.21.21h.21l-.1.31.1.1v.1l-.1.36-.1-.1h-.1l-.05.1v.1l.05.1-.05.31-.72-.51-.1.1v.1l-.05-.1h-.51v.21l.1-.1h.21v.1c0,.17-.17.26-.51.26v.31l.1-.1h.31c.03.27.14.41.31.41v-.1l-.1-.1h.26l.1.46h-.1l-.1.1h-.05c0-.14-.14-.22-.41-.26l-.36.15-.51-.15-.1.05.31.51-.1.57.1.1v.1l-.1.31v.05h.1l.1-.56c.14,0,.21.1.21.31l-.21.36h.1l.15-.15v.26l-.05.1v.1h.15c.07-.31.17-.46.31-.46v.15h.1l-.1.1v.1l.1.31h.21l-.1-.1v-.41l.26-.1-.1.41.1.56h.1c0-.17.14-.32.41-.46v.21l-.1.1v.05l.1.1h.1l.15-.15v.36h.1l.1-.1h.1v.21h-.21l-.1.36.1.31h.1v-.21h.1l.1.31-.1.1v.1l.1.87-.1.36h.1l-.1.1.1.67v.31h-.21v.21h.21v1.13l.1.67h-.1l.1.1v.1l-.1.41.1.1-.1.46.1.46-.1.62.1.46-.1.1h.1l-.1.1v.67l.1.1-.21.36.1.41-.1.1v.1l.1.1h-.1l.1.1v.15l-.1.51h.1l-.1.1v.36l.1.56-.1.31.1.1h-.21v.21l.1.1v.05h-.1l.21.51h-.1l.1.1v.1l-.21.15.21.31-.1.1.1.46v.51l-.1.36.1.1v.1l-.1,1.08h.1l-.1.1v.1l.1.56-.1.26.1.31-.1.1.1.46v.62l-.1.1v.05h.1l-.21.72.1.05v1.08l.1.56-.1.41.1.1-.1.1h.1l-.1.1v.67l.1.1v.1h-.21v.05h.21l-.1.1v.21l.1.41-.1.1v.05l.1.41-.1.36h.1c-.03.27-.14.41-.31.41l.1.1v.1l-.77.21-.31-.1-.26.1v-.1l-.1.1h-.41l-.05-.1-.1.1h-.67l-.1-.1-.1.1h-.41l-.1-.1h-.1v.1l.1.05h-.1l-.56-.05-.1.05h-.1l-.36-.05h-.1v.15h-.1v-.15h-.1l-.1.05h-.1l-.05-.05h-.1l-.77.05-.1-.05h-.1l-.56.15-.1-.1v-.05l-.1.05h-.41l-.36-.05-.77.15-.1-.1h-.51l-.05.1h-.1v-.1l-.1.1h-.1l-.1-.1h-.1l-.1.1h-.1l-.87-.1-.05.1-.1-.1h-.1l-.1.1-.51-.1h-.15l-.1.1h-.1l-.1-.1v-.05l-.36.15-.1-.1h-.1l-.41.1-.1-.1-.26.1-.51-.1-.1.1v-.1l-.05.1h-.1l-.51-.1-.1.1h-.1l-.36-.1-.1.1-.57-.15-.31.15c-.24,0-.6-.38-1.08-1.13l-2-3.03c-.41-.41-1.39-1.73-2.93-3.95l-3.34-4.83c-.92-1.1-1.64-2.12-2.16-3.08-.21,0-.5-.36-.87-1.08h-.1l.1-.1v-.1c-.21-.03-1.23-1.39-3.08-4.06-.41-.62-.67-.92-.77-.92l-1.18-1.64-1.54-2.16-3.96-5.14-.1.1c0-.21-.38-.79-1.13-1.75-.24-.51-.53-.77-.87-.77v.1l-.21.41.21.67h-.21v.1h.21l-.1.1v.15l.1.1-.1.1v.1l.1.51-.1,1.03v1.28l-.1.46h.1l-.1.1v.41l.1.05-.21.51.1.1v.15l-.21.31.1.31h-.1l.31.87h-.1l.1.1v.46l-.1.1.1.1v.1l-.1.57.1.31h-.1c.14.38.21,1.2.21,2.46h.1l-.1.1v1.18l.1.1-.1.1v.15l.1.1-.1.31.1.67-.1.1v.1l.1.56v.21l-.1.1.15.98-.05.1v.05l.05.1v.1l-.05.1.05.1h-.05l.05.1v.21l-.05.36.05.1v.1l-.05.1v.1l.05.57-.05.1v.1l.05.26-.05.51.05.1h-.05l.15,1.13h-.1l.1.1v.1l-.1.41.1.05-.1.1h.1l-.1.31.1.67h-.1l.1.1v.1l-.1.1v.1l.1.1h-.1l.1.05v.1l-.1.51.1.26-.1.31h.1l-.1.1v.1l.21.77-.1.36.1.1-.21.87.1.31h-.15v.1h.15v.36l.1.51h-.21v.1h.21l-.1.05v.31l.1.1-.1.1v.1l.1,1.13-.1.31.1.36v.51l-.1.36.21.41-.1.1v.1l.1.26-.21.21.1.41-.46.46-.1-.1h-.21v.21h-.1l-.1-.1h-.05l-.31.1v-.1l-.1.1h-.77l-.41-.1-1.03.21-.41-.1v.1l-.26-.1-.31.1v-.1l-.31.1-.1-.1-1.03.21-.51-.1h-.98l-.05.1-.1-.1h-.1l-.51.1-.1-.1v.1l-.26-.1-.1.1h-.1l-.1-.1h-.1l-.46.1-.87-.31-9.55-.31c0-3.32-.14-5.92-.41-7.81h.1l-.1-.1v-.1l.1-.1c-.14-.34-.21-1.01-.21-2v-.67l-.1-.1.1-.1v-.31l-.1-.1.1-.1-.1-.46v-.31l.1-.05-.1-.1v-.1l.1-.1-.1-.1v-2.52l.1-.31-.1-.46v-7.76l.1-.05-.1-.1v-2.52l-.1-.1v-.1h.1l-.1-.1v-.1l.1-.26h-.1l.1-.1v-.1l-.1-.1.1-.31-.15-.26.05-.1v-.51l-.05-.1.05-.05v-.31l-.05-.1.05-.1v-.1l-.05-.26h.05l-.05-.1v-.1l.05-.1-.05-.1v-1.13l-.1-.1.1-.1v-.1l-.1-.1.1-.1v-.1l-.21-.77.1-1.08-.1-.26.1-.1-.1-.98v-.87l.1-.1-.1-.1c.03-.38.1-.56.21-.56l-.1-.46v-.1l.1-.57-.1-.1.1-.51v-.77l.05-.1-.05-.1v-.15l.05-.51-.15-.77.1-.1-.21-1.23.1-.1v-.1l-.21-.87.1-.36c0-.41-.07-.62-.21-.62l.21-.77-.21-.98v-.15h.1l-.1-.51v-.98l.1-.05-.1-.1v-.21h.1l-.1-1.18v-.67l.1-.1-.21-.36.1-.1v-.1l-.1-.31h.1l-.1-.1v-.67l.1-.1-.1-.05v-1.08l.1-.1c-.14-.34-.21-1.03-.21-2.05l-.1-.05.1-.31.21-2.98-.1-.1v-.1l.21-.62-.1-.05v-.1l.1-.1v-.1h-.1l.1-.31-.1-.26.1-.1h.1l-.1-.41.21-1.9-.1-.31.1-.1-.1-.1.1-.1h.1l-.1-.26c0-1.3.05-1.95.15-1.95l-.05-.1v-.67l.05-.46h-.05l.15-.41h-.15l.05-.31-.05-.57.05-.1v-.1l-.05-.36.36-.21h.56l.1.1c.27-.14.79-.21,1.54-.21h.72l.05.1c.27-.14.63-.21,1.08-.21h.56l.1.1h.1l.1-.1v-.1l.51.1h.15l.1-.1h.1v.1l.46-.15.1.05h.1l.77-.05.31.05.87-.05h1.23l.41-.1.1.1.26-.1,1.49.1-.1.05v.1h.1l.26-.26h.1v.15l.31-.15h.36l.1.1.1-.1h.67v.15h.1l.56-.26.51.1,1.9-.21.1.1h.1l.41-.1h.26l.1.1.1-.1h.56c.17,0,.31.22.41.67.21,0,.36.1.46.31l-.05.1v.26h.05l.1-.1h.1c0,.27.07.41.21.41.21,0,.31.19.31.57h.05v-.21h.1c.48,1.06.87,1.59,1.18,1.59l-.1.05v.1c.14,0,.21.1.21.31.17,0,.26.12.26.36h.1l-.1.1v.1l.87.98h-.05l.56.87-.1.1.57.67.1-.1,1.28,1.85v.1l-.1.1v.1c.31,0,.57.27.77.82h.1l.05-.05.1.05v.1h-.1l1.18,1.75.31.31h.1l-.1.1v.21c.17,0,.39.22.67.67.31.38.46.7.46.98l.1-.1h.1l1.95,2.88c0,.14.09.21.26.21l.87,1.33c0,.14.43.72,1.28,1.75l.46.98h.1v-.21h.1c0,.31.58,1.32,1.75,3.03l.46.77-.1.05c.14,0,.53.5,1.18,1.49l-.1.26.1-.1h.1l.87,1.18v.21l-.1.1v.1h.1l.1-.1h.1c0,.14.22.43.67.87.41.72.86,1.32,1.33,1.8,0,.21.19.5.57.87l.21.41c.38,0,.56-.29.56-.87l.1-.1-.15-1.34.05-.1v-.1l-.05-.1v-.1l.05-.77h-.05l.15-.77-.1-.41h.1l-.1-.05v-.98h.21v-.31l-.21-.26h.21c0-.34-.07-.51-.21-.51l.1-.1v-.87h.21v-.26h-.21l.31-.72c-.21,0-.31-.08-.31-.26l.1-.1-.21-.87.1-.1-.1-.46v-.21l.21-.77-.1.1h-.15v-.87l.05-.1-.15-1.18h.1l-.1-.1.15-.67-.05-.36v-.1l.05-.1-.05-.1v-.36l.05-.1v-.1h-.15v-.1l.15-.41-.05-.05h.05l-.15-.31.15-1.28-.05-.92h.05c.21,0,.31-.07.31-.21-.24,0-.36-.07-.36-.21h.05l-.05-.1v-.26l.05-.41-.05-.41v-.26l.26.21v-.1l-.21-.21v-.21c.21,0,.31-.15.31-.46h-.21v.1l.1.1v.05h-.21v-.36l.21-.21.1.1.1-.1v-.1c-.31,0-.46-.08-.46-.26l.05-.1-.05-.1v-.51l.15-.15-.1-.1v-.1l.1-.41h-.1l.1-.05v-.1l-.1-.41.1-.36ZM420.3,703.87h.41l.1.36-.1.1c.1,0,.22.26.36.77h-.36l.1.1v.21l-.21.15h-.1l-.1-.46.1-.1-.1-.1h-.1l.1-.26-.1-.77ZM420.71,639.77c0,.1.12.19.36.26v-.05l-.26-.21h-.1ZM461.95,641.62l.1.05h.1l.21-.15h-.31l-.1.1ZM462.05,642.85l.21.21h.1v-.21h-.31ZM476.74,639.56c0-.21-.07-.31-.21-.31-.1,0-.15.14-.15.41h-.21l.31.31.15-.21-.1-.1v-.1h.21ZM477.72,674.08v.31h.21v-.31h-.21ZM478.18,674.18v.1l.1.26h-.15v.1l.15.21.41-.21v-.26l-.1.05h-.1l-.1-.26h-.21ZM478.59,677.83v.31l.1.1h.1v-.1l-.1-.31h-.1ZM478.9,673.97l-.1.46.26.1-.05-.1v-.05l.05-.41h-.15ZM479,662.26l.15.21.1-.1v-.1h-.26ZM479.16,671.77l-.1.26v.1h.1l.1-.26v-.1h-.1ZM479.16,676.7l.21.21h.1l-.21-.21h-.1ZM479.83,675.72l.21.21v.1h-.21v-.31ZM479.93,674.18l.1.1h.1v-.31l-.21.21ZM480.03,675.31h.1l.1.31-.1.1h-.1v-.41ZM480.34,676.9v.05l.1.1-.1.1v.21h.1l.1-.46h-.21ZM480.6,675.31h.21v.21l-.26.31v-.1l.05-.41ZM480.6,678.6v.31l.31-.31h-.31ZM481.01,675.93v.46h-.1l-.1-.36.1-.1h.1ZM481.32,671.87c0,.31-.14.46-.41.46v.1h.21v.1l-.1.1v.1l.1.05h.21v-.05l-.1-.31.26.21.1-.31c-.1,0-.15-.15-.15-.46h-.1ZM480.9,674.18h.21v.26h-.21v-.26ZM481.11,671.87l-.1.26h.1l.1-.1v-.15h-.1ZM481.11,662.37v.1l.21-.21v-.1l-.21.21ZM481.32,677.16l-.21.21v.1h.21l.1-.1v-.21h-.1ZM481.42,659.85v.1h.15v-.26l-.15.15ZM481.42,662.37v.1l.15-.21v-.1l-.15.21Z"/>
      <path class="cls-3" d="M490.2,634.37l.67.67h.67l10.07-.67v2.05l-.67-.72h-2v1.39h1.34v.67c2.22-.62,3.34-1.52,3.34-2.72h1.34l.67,3.39h-1.33v6.68h1.33v3.34l.72.67-.72.72v.67l.72.67-.72,4.01.72,6.68h.67c1.2-.48,4.31-5.62,9.35-15.41,2.16-2.23,3.95-3.34,5.39-3.34l.67.67c0-1.33.67-2,2-2v-1.33h-2l-.67.67h-.67v-2c.79-2.33,2.35-3.68,4.67-4.06l.67.67.67-.67v2.05l3.34-1.39,1.33,1.39v.67l-4.67,1.34v-1.34h-1.34v.67l.67.67v.67l-.67.67.67.67h1.34l2-1.33h2l-1.33,2,.67.67h4.06v-1.34h-1.33v-.67h2v-1.34l-.67.67h-1.33c0-1.64-.91-3-2.72-4.06h-.67l.67-.67v-.67l.67.67h4.06v1.39l.67-.72h1.33v2.72h.67c1.13-1.34,2.24-2,3.34-2v-1.39h2c-.92,1.82-2.04,2.72-3.34,2.72v.67h2l-9.35,18.08c-4.49,6.71-6.73,10.96-6.73,12.74l19.47,34.21h2v2l-6.73.62v-.62l-.67.62h-14.74c-7.16-10.68-12.74-20.05-16.74-28.09l-2-2-.67,2.67.67,8.01v14.07l-.67.67.67.67v.72l-.67.67v.67l.67,1.95h-3.39l-.67-.62-.67.62h-1.34l-.67-.62-.67.62h-12.07v-6.01l-.67-10.02h.67l-.67-.67v-.72l.67-4.01-.67-2h.67l-.67-.67v-8.06l-.67-4.01.67-.67-.67-3.34v-9.4l.67-3.34h-.67l2-4.73v-.67l-2-.67.67-2-.67-.67h.67l-.67-.67v-.67l1.33-3.34-.67-.67h-.67l.67-2.67.67.67h.67l.67-.67v-.72l-.67-.67,2-.67ZM493.59,647.11v1.33h.67l1.34-1.33h-2ZM497.6,645.78v.67h.67v-1.33h.67l.67.67h.67v-2h-.67l-2,2ZM537.14,639.1l.67.67v.67l-.67.67h1.34v-2h-1.34Z"/>
      <path class="cls-3" d="M293.67,737.76v.71l.71.13-.32.32-6.27,8.99,1.62-.13,1.03-1.1-26.7,35.43,2.07-.71,4.4,1.42v-1.1l3.23.97,5.17-1.23,4.33-.06,3.3,2.07v-2.13l10.34.45.06,3.3-1.03,1.1h1.1l-.78,2.2v1.1l1.16,1.04.19,8.02-1.03,4.4.06,1.03-3.3-.97-2.97,1.88h-1.1v-2.13h-1.1l-1.1,1.16-13.06.26-5.43-.97-1.1,1.1v-2.13l-3.23,2.2-7.63.19-1.1-1.03v1.03l-4.33-.91-3.3,1.1-6.53-.9-5.3.19.06-22.37,1.1-1.16-1.1.06,25.54-35.37,6.08-8.28-12.28.06h-6.27l-7.18.52-3.69.84-1.03-1.94-1.1-.32.71-5.82-1.1.06,1.03-4.4-.06-1.1-1.1-1.03,1.1-.06c-.17-5.6.47-8.43,1.94-8.47l2.2-.06,3.81-.39,1.03-.06,1.1-1.1,13.12.52-.06-1.1h1.1l1.1,1.03h1.1l1.1-1.1,3.3,2.07,4.33-1.16,2.13-.07,1.16,1.04-.06-1.1,5.5,2.07,1.1-1.1,6.53-.84,2.33,1.49v-.52l.9-1.04,5.04.84-.39,19.27,1.1,1.03-.97,3.3-.78-.45-.06-.06-.84-.45h-.26l-.45-2.07.06,2.07h-.45l.45.45ZM262.83,782.43l-1.36-.91,1.1,1.03.26-.13Z"/>
      <path class="cls-3" d="M344.94,712.87h1.16l1.16.91h1.16l1.1-.91v.91l1.16-.91h5.69l1.23.91h1.1v-.91c6.9,1.38,10.34,3.21,10.34,5.5h1.1l1.16-.91h1.23c5.3,1.9,8.73,4.65,10.28,8.28h-5.69l2.26,1.81h2.26l3.43-1.81c8.45,9.96,12.67,19.14,12.67,27.54-.82,9.87-1.98,15.71-3.49,17.52l1.16.91-1.16.91h1.16c-2.76,7.37-5.04,11.06-6.85,11.06v.91l1.1.91v.9h-2.26c-2.67,7.11-11.49,13.23-26.44,18.36l-4.59.97-3.36-.97-10.34.97c-8.53,0-17.71-4.29-27.54-12.87-7.67-8.53-11.51-16.81-11.51-24.83l1.16-.9h-1.16l1.16-.97-1.16-4.59v-.91h2.39v-.91h-2.39l-1.1.91v-3.68l1.1-.91v-.91l-1.1-.91,1.1-.97h1.16l-1.16-.91,2.39-10.09-1.23-.97c1.9,0,3.43-2.76,4.59-8.28,8.88-11.64,18.45-17.46,28.71-17.46l-1.1-.91v-.91l7.95-.91ZM331.23,764.33c3.92,11.64,10.02,17.46,18.3,17.46,5.34-1.16,9.93-3.92,13.77-8.28l5.75-15.65-1.1-.9v-.91l1.1-.91-3.49-10.15h2.39l-4.66-2.72-1.1-.97v-.91h2.26v-1.81h-2.26v1.81h-1.23l-6.85-3.68-1.1.97h-1.16l-1.16-.97h-1.16c-6.29,0-11.64,4.29-16.03,12.87l-2.26,14.74ZM334.59,718.36l1.16,4.59h2.33l-1.1-4.59h-2.39Z"/>
      <path class="cls-3" d="M406.49,803.96h-1.55v-40.73h.13l1.42,40.73ZM461.38,722.95h-.13v-.13l.65-.84h-.71v-.26l.58-.13v-.13l-.26-.26-.26.26v-.26l.13-.84-.13-.13h-.06l.45-.71-.13-.39h.26l-.26-.32v-.13h.26v-.13l-.13-.13.13-.13v-.13l-.13-.45.13-.52v-.13l-.13-.13.13-.13v-.58l-.13-.13v-.13h.13l-.13-.13v-.07l.13-.52-.13-.13v-.13l.13-.13-.13-.58v-1.1l13.64.13v.13c0,1.47.09,2.2.26,2.2l-.13.13.13.58v.58c.22,0,.32.09.32.26l-.13.13.39.13h.13v-.13h-.26v-.13l.52-.39c0,.69-.22,1.03-.65,1.03l.13.06v.13l-.13.13h.26l-.26.71h.13c.17,0,.26-.19.26-.58h.13v.52h.13l.19-.26-.19-.52.13-.32.06.13h.13v-.13l-.13-.13h-.06l-.13.13v-.26h.32l-.13-.13v-.13l.13-.13h.26l-.13.65.13.32-.26.26.26.26.13-.13h.39v.26l-.13.13v.06h.13c.21-.17.32-.41.32-.71h.13c.04.35.17.52.39.52l-.26-.78h-.13v-.19h.13c.17,0,.26.11.26.32h.13l.32-.19.13.32-.13.13v.13l.13.13v.13c-.39.04-.58.15-.58.32l.32.13c.04-.3.17-.45.39-.45h.26c0,.22.09.32.26.32v-.19h.19l.13.58h.13v-.52h.13c0,.43.17.69.52.78.3-.04.45-.17.45-.39h.39v.26h-.26v.97h-.13c0-.39-.09-.58-.26-.58l-.19.19.19.26v.26h-.19v-.26l-.26-.26h-.39v.26h-.13c0,.35.09.52.26.52l.13-.13h.13v.13l.58-.26c0,.17.24.26.71.26l.26.19v.52h.13l.26-.26-.26-.39.39-.06v.19h.13l.32-.13v.13c0,.52.13.78.39.78,0-.34.09-.52.26-.52v.13l-.52.84.39-.26.13.13h.19l.26-.97h.13v.26c.26,0,.39.09.39.26l-.26.32v.13h.13v-.19h.13l.13.06h.07v-.19l-.07-.65.45.65-.13.32.13-.13h.26l-.13.39-.58-.26-.13.13v.26l.19.26v-.39c.34.22.52.58.52,1.1h.13v-.58l-.13-.13h-.13c.13-.34.26-.52.39-.52h.13v.26h-.26v.13c.13.3.26.45.39.45l.19-.19.26.19v.26l-.26.26-.13-.39h-.19v.39l.13.39h-.39v.06l.39.13-.26.78h.13c.22,0,.32-.32.32-.97.17,0,.26.11.26.32l-.13.13v.13l.13.39-.13.06.13.13h-.13l-.45-.13-.13.13v.26h.13l.32-.26.39.97-.13.13h.26l-.13.13v.26l.13.97-.13.84.13.39c-.22,0-.35.15-.39.45v.13h.13c0-.22.09-.32.26-.32l-.13,1.03c.04.69.13,1.03.26,1.03l-.26.32.13.13v.13l-.13.58.13-.13h.13l-.13.65v.13l.13.13-.13.32.13.13v.13l-.13.13.13.58v.13l-.13.65h.13l-.26.97.13.32-.13.13v.13l.26.52c-.17.35-.26.99-.26,1.94v.58c-.39,0-.58.09-.58.26h.06l.39-.13.13.13v.39l-.13.45.26.97-.26.71h-.13l.26.39v.39h-.26l.13-.13-.13-.39h-.13v.26h-.13l.13.39v.32h-.13c0-.3-.06-.45-.19-.45l.13-.65-.26-.19h-.13v.19l.13.13v.13l-.13.39h.13l.58.97.13-.13.13.45c-.04.34-.17.52-.39.52v.39h.39v.19l-.13.13.13.39v.45h-.13v-.45h-.13v.26h-.13v-.39h-.19v.13l.45.97-.13-.13h-.13v.26l.26.32-.13,1.1h.26v.26l-.13.13.13.13v.39l-.13.06.13.13v.13l-.13.13v.13l.26,1.49-.13.45.13.13h-.13l.13.13-.26.97.26.39-.13.06v.52l.13.13-.13.13v.13l.13.13-.13.06v.26l.13,1.23c-.04.56-.13.84-.26.84l.13.13v.52l-.13.06v.13h.26v.13c0,.56-.09.84-.26.84l.13.13v.13l-.13.97.13.13v.13l-.13.13v.13l.13.32h-.13l-.26.26h.26l-.13.39.13.13v.13l-.13.45-.13-.13h-.13l-.06.13v.13l.06.13-.06.39-.91-.65-.13.13v.13l-.07-.13h-.65v.26l.13-.13h.26v.13c0,.22-.22.32-.65.32v.39l.13-.13h.39c.04.35.17.52.39.52v-.13l-.13-.13h.32l.13.58h-.13l-.13.13h-.07c0-.17-.17-.28-.52-.32l-.45.19-.65-.19-.13.07.39.65-.13.71.13.13v.13l-.13.39v.06h.13l.13-.71c.17,0,.26.13.26.39l-.26.45h.13l.19-.19v.32l-.07.13v.13h.19c.09-.39.21-.58.39-.58v.19h.13l-.13.13v.13l.13.39h.26l-.13-.13v-.52l.32-.13-.13.52.13.71h.13c0-.21.17-.41.52-.58v.26l-.13.13v.07l.13.13h.13l.19-.19v.45h.13l.13-.13h.13v.26h-.26l-.13.45.13.39h.13v-.26h.13l.13.39-.13.13v.13l.13,1.1-.13.45h.13l-.13.13.13.84v.39h-.26v.26h.26v1.42l.13.84h-.13l.13.13v.13l-.13.52.13.13-.13.58.13.58-.13.78.13.58-.13.13h.13l-.13.13v.84l.13.13-.26.45.13.52-.13.13v.13l.13.13h-.13l.13.13v.19l-.13.65h.13l-.13.13v.45l.13.71-.13.39.13.13h-.26v.26l.13.13v.06h-.13l.26.65h-.13l.13.13v.13l-.26.19.26.39-.13.13.13.58v.65l-.13.45.13.13v.13l-.13,1.36h.13l-.13.13v.13l.13.71-.13.32.13.39-.13.13.13.58v.78l-.13.13v.07h.13l-.26.9.13.07v1.36l.13.71-.13.52.13.13-.13.13h.13l-.13.13v.84l.13.13v.13h-.26v.06h.26l-.13.13v.26l.13.52-.13.13v.06l.13.52-.13.45h.13c-.04.35-.17.52-.39.52l.13.13v.13l-.97.26-.39-.13-.32.13v-.13l-.13.13h-.52l-.07-.13-.13.13h-.84l-.13-.13-.13.13h-.52l-.13-.13h-.13v.13l.13.06h-.13l-.71-.06-.13.06h-.13l-.45-.06h-.13v.19h-.13v-.19h-.13l-.13.06h-.13l-.06-.06h-.13l-.97.06-.13-.06h-.13l-.71.19-.13-.13v-.06l-.13.06h-.52l-.45-.06-.97.19-.13-.13h-.65l-.06.13h-.13v-.13l-.13.13h-.13l-.13-.13h-.13l-.13.13h-.13l-1.1-.13-.06.13-.13-.13h-.13l-.13.13-.65-.13h-.19l-.13.13h-.13l-.13-.13v-.06l-.45.19-.13-.13h-.13l-.52.13-.13-.13-.32.13-.65-.13-.13.13v-.13l-.06.13h-.13l-.65-.13-.13.13h-.13l-.45-.13-.13.13-.71-.19-.39.19c-.3,0-.75-.47-1.36-1.42l-2.52-3.81c-.52-.52-1.75-2.18-3.69-4.98l-4.2-6.08c-1.16-1.38-2.07-2.67-2.72-3.88-.26,0-.62-.45-1.1-1.36h-.13l.13-.13v-.13c-.26-.04-1.55-1.75-3.88-5.11-.52-.78-.84-1.16-.97-1.16l-1.49-2.07-1.94-2.72-4.98-6.46-.13.13c0-.26-.47-.99-1.42-2.2-.3-.65-.67-.97-1.1-.97v.13l-.26.52.26.84h-.26v.13h.26l-.13.13v.19l.13.13-.13.13v.13l.13.65-.13,1.29v1.62l-.13.58h.13l-.13.13v.52l.13.06-.26.65.13.13v.19l-.26.39.13.39h-.13l.39,1.1h-.13l.13.13v.58l-.13.13.13.13v.13l-.13.71.13.39h-.13c.17.47.26,1.51.26,3.1h.13l-.13.13v1.49l.13.13-.13.13v.19l.13.13-.13.39.13.84-.13.13v.13l.13.71v.26l-.13.13.19,1.23-.06.13v.06l.06.13v.13l-.06.13.06.13h-.06l.06.13v.26l-.06.45.06.13v.13l-.06.13v.13l.06.71-.06.13v.13l.06.32-.06.65.06.13h-.06l.19,1.42h-.13l.13.13v.13l-.13.52.13.06-.13.13h.13l-.13.39.13.84h-.13l.13.13v.13l-.13.13v.13l.13.13h-.13l.13.07v.13l-.13.65.13.32-.13.39h.13l-.13.13v.13l.26.97-.13.45.13.13-.26,1.1.13.39h-.19v.13h.19v.45l.13.65h-.26v.13h.26l-.13.06v.39l.13.13-.13.13v.13l.13,1.42-.13.39.13.45v.65l-.13.45.26.52-.13.13v.13l.13.32-.26.26.13.52-.58.58-.13-.13h-.26v.26h-.13l-.13-.13h-.06l-.39.13v-.13l-.13.13h-.97l-.52-.13-1.29.26-.52-.13v.13l-.32-.13-.39.13v-.13l-.39.13-.13-.13-1.29.26-.65-.13h-1.23l-.06.13-.13-.13h-.13l-.65.13-.13-.13v.13l-.32-.13-.13.13h-.13l-.13-.13h-.13l-.58.13-1.1-.39-12.03-.39c0-4.18-.17-7.46-.52-9.83h.13l-.13-.13v-.13l.13-.13c-.17-.43-.26-1.27-.26-2.52v-.84l-.13-.13.13-.13v-.39l-.13-.13.13-.13-.13-.58v-.39l.13-.06-.13-.13v-.13l.13-.13-.13-.13v-3.17l.13-.39-.13-.58v-9.76l.13-.06-.13-.13v-3.17l-.13-.13v-.13h.13l-.13-.13v-.13l.13-.32h-.13l.13-.13v-.13l-.13-.13.13-.39-.19-.32.07-.13v-.65l-.07-.13.07-.07v-.39l-.07-.13.07-.13v-.13l-.07-.32h.07l-.07-.13v-.13l.07-.13-.07-.13v-1.42l-.13-.13.13-.13v-.13l-.13-.13.13-.13v-.13l-.26-.97.13-1.36-.13-.32.13-.13-.13-1.23v-1.1l.13-.13-.13-.13c.04-.47.13-.71.26-.71l-.13-.58v-.13l.13-.71-.13-.13.13-.65v-.97l.07-.13-.07-.13v-.19l.07-.65-.19-.97.13-.13-.26-1.55.13-.13v-.13l-.26-1.1.13-.45c0-.52-.09-.78-.26-.78l.26-.97-.26-1.23v-.19h.13l-.13-.65v-1.23l.13-.07-.13-.13v-.26h.13l-.13-1.49v-.84l.13-.13-.26-.45.13-.13v-.13l-.13-.39h.13l-.13-.13v-.84l.13-.13-.13-.07v-1.36l.13-.13c-.17-.43-.26-1.29-.26-2.59l-.13-.06.13-.39.26-3.75-.13-.13v-.13l.26-.78-.13-.06v-.13l.13-.13v-.13h-.13l.13-.39-.13-.32.13-.13h.13l-.13-.52.26-2.39-.13-.39.13-.13-.13-.13.13-.13h.13l-.13-.32c0-1.64.06-2.46.19-2.46l-.07-.13v-.84l.07-.58h-.07l.19-.52h-.19l.07-.39-.07-.71.07-.13v-.13l-.07-.45.45-.26h.71l.13.13c.34-.17.99-.26,1.94-.26h.9l.07.13c.34-.17.8-.26,1.36-.26h.71l.13.13h.13l.13-.13v-.13l.65.13h.19l.13-.13h.13v.13l.58-.19.13.06h.13l.97-.06.39.06,1.1-.06h1.55l.52-.13.13.13.32-.13,1.88.13-.13.06v.13h.13l.32-.32h.13v.19l.39-.19h.45l.13.13.13-.13h.84v.19h.13l.71-.32.65.13,2.39-.26.13.13h.13l.52-.13h.32l.13.13.13-.13h.71c.21,0,.39.28.52.84.26,0,.45.13.58.39l-.06.13v.32h.06l.13-.13h.13c0,.34.09.52.26.52.26,0,.39.24.39.71h.06v-.26h.13c.6,1.34,1.1,2,1.49,2l-.13.06v.13c.17,0,.26.13.26.39.21,0,.32.15.32.45h.13l-.13.13v.13l1.1,1.23h-.06l.71,1.1-.13.13.71.84.13-.13,1.62,2.33v.13l-.13.13v.13c.39,0,.71.34.97,1.03h.13l.06-.06.13.06v.13h-.13l1.49,2.2.39.39h.13l-.13.13v.26c.21,0,.5.28.84.84.39.48.58.88.58,1.23l.13-.13h.13l2.46,3.62c0,.17.11.26.32.26l1.1,1.68c0,.17.54.91,1.62,2.2l.58,1.23h.13v-.26h.13c0,.39.73,1.66,2.2,3.81l.58.97-.13.06c.17,0,.67.62,1.49,1.88l-.13.32.13-.13h.13l1.1,1.49v.26l-.13.13v.13h.13l.13-.13h.13c0,.17.28.54.84,1.1.52.91,1.08,1.66,1.68,2.26,0,.26.24.62.71,1.1l.26.52c.47,0,.71-.37.71-1.1l.13-.13-.19-1.68.06-.13v-.13l-.06-.13v-.13l.06-.97h-.06l.19-.97-.13-.52h.13l-.13-.06v-1.23h.26v-.39l-.26-.32h.26c0-.43-.09-.65-.26-.65l.13-.13v-1.1h.26v-.32h-.26l.39-.91c-.26,0-.39-.11-.39-.32l.13-.13-.26-1.1.13-.13-.13-.58v-.26l.26-.97-.13.13h-.19v-1.1l.06-.13-.19-1.49h.13l-.13-.13.19-.84-.06-.45v-.13l.06-.13-.06-.13v-.45l.06-.13v-.13h-.19v-.13l.19-.52-.06-.06h.06l-.19-.39.19-1.62-.06-1.16h.06c.26,0,.39-.09.39-.26-.3,0-.45-.09-.45-.26h.06l-.06-.13v-.32l.06-.52-.06-.52v-.32l.32.26v-.13l-.26-.26v-.26c.26,0,.39-.19.39-.58h-.26v.13l.13.13v.06h-.26v-.45l.26-.26.13.13.13-.13v-.13c-.39,0-.58-.11-.58-.32l.06-.13-.06-.13v-.65l.19-.19-.13-.13v-.13l.13-.52h-.13l.13-.06v-.13l-.13-.52.13-.45ZM408.94,801.31h.52l.13.45-.13.13c.13,0,.28.32.45.97h-.45l.13.13v.26l-.26.19h-.13l-.13-.58.13-.13-.13-.13h-.13l.13-.32-.13-.97ZM409.46,720.63c0,.13.15.24.45.32v-.06l-.32-.26h-.13ZM461.38,722.95l.13.06h.13l.26-.19h-.39l-.13.13ZM461.5,724.51l.26.26h.13v-.26h-.39ZM480,720.37c0-.26-.09-.39-.26-.39-.13,0-.19.17-.19.52h-.26l.39.39.19-.26-.13-.13v-.13h.26ZM481.22,763.81v.39h.26v-.39h-.26ZM481.81,763.94v.13l.13.32h-.19v.13l.19.26.52-.26v-.32l-.13.07h-.13l-.13-.32h-.26ZM482.32,768.53v.39l.13.13h.13v-.13l-.13-.39h-.13ZM482.71,763.68l-.13.58.32.13-.06-.13v-.07l.06-.52h-.19ZM482.84,748.94l.19.26.13-.13v-.13h-.32ZM483.03,760.9l-.13.32v.13h.13l.13-.32v-.13h-.13ZM483.03,767.11l.26.26h.13l-.26-.26h-.13ZM483.88,765.88l.26.26v.13h-.26v-.39ZM484,763.94l.13.13h.13v-.39l-.26.26ZM484.13,765.37h.13l.13.39-.13.13h-.13v-.52ZM484.52,767.37v.07l.13.13-.13.13v.26h.13l.13-.58h-.26ZM484.84,765.37h.26v.26l-.32.39v-.13l.07-.52ZM484.84,769.5v.39l.39-.39h-.39ZM485.36,766.14v.58h-.13l-.13-.45.13-.13h.13ZM485.75,761.03c0,.39-.17.58-.52.58v.13h.26v.13l-.13.13v.13l.13.06h.26v-.06l-.13-.39.32.26.13-.39c-.13,0-.19-.19-.19-.58h-.13ZM485.23,763.94h.26v.32h-.26v-.32ZM485.49,761.03l-.13.32h.13l.13-.13v-.19h-.13ZM485.49,749.07v.13l.26-.26v-.13l-.26.26ZM485.75,767.69l-.26.26v.13h.26l.13-.13v-.26h-.13ZM485.88,745.91v.13h.19v-.32l-.19.19ZM485.88,749.07v.13l.19-.26v-.13l-.19.26Z"/>
      <path class="cls-3" d="M515.81,810.62c-8.66.3-14.61.09-17.84-.65l-1.1,1.03.06-1.1-1.1,1.03-17-.45.06-1.04,12.74-.71,1.04,1.1h1.03c4.44.13,7.18-1.08,8.21-3.62h-.65c.04-1.42-2.29-2.54-6.98-3.36l1.16-3.1c-1.25-6.08-1.53-13.9-.84-23.47l.19-7.44-1.03-1.03,1.1-1.03-.84-7.5.39-13.77-1.03-1.1,1.1-1.03-.19-7.44.13-6.4-1.03-1.1,1.1-1.03.07-2.13-1.04-1.1.06-1.03h1.04l-1.04-1.04.13-4.65c.09-2.16,4.14-3.1,12.15-2.84l.06-1.1,16.94.91,3.17.06,4.27,1.16,1.04-1.03,1.1.06,3.17.45v-1.03l1.03,1.1,10.6.26,1.1-1.03,1.04,1.1.45.06,1.03-1.03,4.27,1.16v23.34l-4.27.97-1.03-1.1-1.1-.07-1.1,1.04-3.1-1.1-5.37.91.07-1.1-1.1,1.03-3.23-.06-10.09-1.1c-1.42-.17-1.77,2.07-1.03,6.72l1.03,1.1,2.13.06,1.1-1.03,1.04,1.1,20.56.58c1.42.04,2.37,3.97,2.84,11.77l-1.04-.06,1.04,1.1-.07,1.1-1.1,1.03v1.04h1.03l-1.1,1.03v1.1l1.03,1.1-1.23,5.24-18.43-.52-7.44.9v-1.1l-3.23.97-.13,6.4,8.47.19,1.04,1.1,1.1-1.03.39.06,1.04,1.1h1.03l6.4-.91,1.1.06,1.03,1.1,1.1-1.04,5.24,1.16,5.3.19v2.07l-1.1,1.03,1.04,1.1-.19,5.3-1.23,6.34,1.03,1.1v1.1l-1.1,1.03v1.03l.97,3.23-1.1.97-6.4-.13-1.03-1.1-5.37,1.94-1.03-1.1-12.74-.26-7.43.78.65,3.88,26.83.71,4.27-.91,4.27,1.16,9.5.26,1.1-1.03h1.1l-.07,1.1,1.1-1.03h1.1l.97,1.1,1.1-1.03,6.4.19-.06,2.13-15.9-.45-4.27.97-4.27-1.16-5.3-.19-1.1,1.03-1.04-1.1h-1.03l-4.27.97-1.04-1.1-7.5.84-10.6-.26-1.1,1.03-1.04-.06-1.03-1.1c-.35,0-.67.02-.97.06-.78.47-1.19,1.27-1.23,2.39l-.13-2.33Z"/>
    </g>
  </g>
</svg>